<svg xmlns="http://www.w3.org/2000/svg" viewBox="0 0 760 620" role="img" aria-labelledby="title desc">
  <title id="title">DSH 插件城市</title>
  <desc id="desc">Cordis 作为基础设施连接 Host、Web Client 和 Bundle。</desc>
  <defs>
    <linearGradient id="sky" x1="0" y1="0" x2="1" y2="1"><stop stop-color="#172448"/><stop offset="1" stop-color="#0b1126"/></linearGradient>
    <linearGradient id="host" x1="0" y1="0" x2="1" y2="1"><stop stop-color="#6d5dfc"/><stop offset="1" stop-color="#4c3ac9"/></linearGradient>
    <linearGradient id="client" x1="0" y1="0" x2="1" y2="1"><stop stop-color="#24c7b0"/><stop offset="1" stop-color="#0b837a"/></linearGradient>
    <linearGradient id="road" x1="0" y1="0" x2="1" y2="0"><stop stop-color="#ffb75b"/><stop offset="1" stop-color="#ff7657"/></linearGradient>
    <filter id="shadow" x="-30%" y="-30%" width="160%" height="160%"><feDropShadow dx="0" dy="16" stdDeviation="18" flood-color="#050914" flood-opacity=".5"/></filter>
    <filter id="glow"><feGaussianBlur stdDeviation="8" result="blur"/><feMerge><feMergeNode in="blur"/><feMergeNode in="SourceGraphic"/></feMerge></filter>
  </defs>
  <rect width="760" height="620" rx="36" fill="url(#sky)"/>
  <g opacity=".18" stroke="#a9b7de" stroke-width="1">
    <path d="M0 96h760M0 186h760M0 276h760M0 366h760M0 456h760M0 546h760"/>
    <path d="M90 0v620M180 0v620M270 0v620M360 0v620M450 0v620M540 0v620M630 0v620"/>
  </g>
  <circle cx="635" cy="98" r="49" fill="#8794ff" opacity=".13"/>
  <circle cx="635" cy="98" r="26" fill="#96a2ff" opacity=".2"/>
  <path d="M65 500 380 325 695 500 380 586Z" fill="#111a35" stroke="#32416c" stroke-width="2"/>
  <path d="m92 496 288-156 286 156-286 73Z" fill="#182340"/>
  <path d="M380 345v215M92 496l574 0" stroke="#3c4d76" stroke-width="2"/>
  <path d="M183 448 473 520M287 389l293 105M577 448 289 520M473 389 181 493" stroke="#293858" stroke-width="2"/>
  <path d="M120 497 380 356l260 141" fill="none" stroke="url(#road)" stroke-width="13" stroke-linecap="round" opacity=".9"/>
  <path d="M140 497 380 369l239 128" fill="none" stroke="#ffe9c7" stroke-width="2" stroke-dasharray="11 14" opacity=".8"/>
  <g filter="url(#shadow)">
    <g transform="translate(112 218)">
      <path d="M0 82 129 12l130 70-130 70Z" fill="#1c2a4e" stroke="#536995"/>
      <path d="M42 60 129 12l88 48v107l-88 48-87-48Z" fill="url(#host)"/>
      <path d="M42 60 129 108l88-48M129 108v107" fill="none" stroke="#c5c7ff" stroke-opacity=".45"/>
      <rect x="72" y="96" width="24" height="32" rx="4" fill="#ddd8ff" opacity=".82"/>
      <rect x="111" y="118" width="35" height="44" rx="4" fill="#251a62" opacity=".8"/>
      <rect x="162" y="96" width="24" height="32" rx="4" fill="#ddd8ff" opacity=".82"/>
      <text x="129" y="254" fill="#f4f5ff" font-family="Arial,sans-serif" font-weight="700" font-size="20" text-anchor="middle">HOST DISTRICT</text>
      <text x="129" y="276" fill="#aab6da" font-family="Arial,sans-serif" font-size="13" text-anchor="middle">Agent · Storage · Process</text>
    </g>
    <g transform="translate(444 247)">
      <path d="M0 68 99 14l99 54-99 54Z" fill="#1c2a4e" stroke="#536995"/>
      <path d="M26 60 99 20l74 40v88l-74 40-73-40Z" fill="url(#client)"/>
      <path d="M26 60 99 100l74-40M99 100v88" fill="none" stroke="#b2fff3" stroke-opacity=".5"/>
      <path d="M60 80h78v56H60z" fill="#071b25" opacity=".78" stroke="#b0fff2"/>
      <path d="M69 92h36M69 104h58M69 116h44" stroke="#65e5d2" stroke-width="4" stroke-linecap="round"/>
      <text x="99" y="225" fill="#f4f5ff" font-family="Arial,sans-serif" font-weight="700" font-size="20" text-anchor="middle">WEB CLIENT</text>
      <text x="99" y="247" fill="#aab6da" font-family="Arial,sans-serif" font-size="13" text-anchor="middle">Slots · Store · React</text>
    </g>
  </g>
  <g transform="translate(329 228)" filter="url(#glow)">
    <rect x="0" y="0" width="103" height="56" rx="17" fill="#ff9f55"/>
    <path d="M19 28h65M69 14l15 14-15 14" fill="none" stroke="#2d1831" stroke-width="5" stroke-linecap="round" stroke-linejoin="round"/>
    <text x="51" y="75" fill="#ffcf9c" font-family="Arial,sans-serif" font-size="12" text-anchor="middle">REMOTE</text>
  </g>
  <g transform="translate(286 74)">
    <path d="M0 75 94 23l95 52-95 52Z" fill="#27355f" stroke="#8494ff"/>
    <path d="M34 59 94 26l61 33v69l-61 34-60-34Z" fill="#6878f6"/>
    <path d="M34 59 94 92l61-33M94 92v70" fill="none" stroke="#dadcff" stroke-opacity=".65"/>
    <circle cx="94" cy="92" r="20" fill="#141c3a" stroke="#cdd2ff" stroke-width="4"/>
    <path d="M86 92h16M94 84v16" stroke="#cdd2ff" stroke-width="4" stroke-linecap="round"/>
    <text x="94" y="200" fill="#f4f5ff" font-family="Arial,sans-serif" font-weight="700" font-size="20" text-anchor="middle">CORDIS GRID</text>
    <text x="94" y="222" fill="#aab6da" font-family="Arial,sans-serif" font-size="13" text-anchor="middle">Context · inject · effect</text>
  </g>
  <g transform="translate(294 494)">
    <rect width="172" height="62" rx="18" fill="#f5f0df"/>
    <path d="M21 18h44v31H21zM29 12h28v8" fill="#ff855b" stroke="#7c402f" stroke-width="2"/>
    <text x="79" y="28" fill="#1b2440" font-family="Arial,sans-serif" font-size="14" font-weight="700">PLUGIN BUNDLE</text>
    <text x="79" y="46" fill="#66708b" font-family="Arial,sans-serif" font-size="11">portable delivery box</text>
  </g>
</svg>
